# xmcd CD database file
#
# Track frame offsets:
#	150
#	40815
#	84263
#	99923
#	114070
#	145493
#	180388
#
# Disc length: 2752 seconds
#
# Revision: 2
# Processed by: cddbd v1.5.1PL2 Copyright (c) Steve Scherf et al.
# Submitted via: CDex 1.60beta1-cs1
#
DISCID=480abe07
DTITLE=Gerry Mulligan/Paul Desmond - Blues In Time
DYEAR=1957
DGENRE=Jazz
TTITLE0=Blues In Time
TTITLE1=Body And Soul
TTITLE2=Stand Still
TTITLE3=Line For Lyons
TTITLE4=Wintersong
TTITLE5=Battle Hymn Of The Republican
TTITLE6=Fall Out
EXTD=Original Master Recording YEAR: 1957
EXTT0=
EXTT1=
EXTT2=
EXTT3=
EXTT4=
EXTT5=
EXTT6=
PLAYORDER=
